<?xml version="1.0" encoding="utf-8"?>
<!-- Generator: Adobe Illustrator 17.1.0, SVG Export Plug-In . SVG Version: 6.00 Build 0)  -->
<!DOCTYPE svg PUBLIC "-//W3C//DTD SVG 1.1//EN" "http://www.w3.org/Graphics/SVG/1.1/DTD/svg11.dtd">
<svg version="1.1" id="Layer_1" xmlns="http://www.w3.org/2000/svg" xmlns:xlink="http://www.w3.org/1999/xlink" x="0px" y="0px"
	 width="68px" height="68px" viewBox="0 0 68 68" enable-background="new 0 0 68 68" xml:space="preserve">
<path fill="#57585B" d="M6.3,67.6v-5.4h50v5.2h-50C6.3,67.4,6.3,67.6,6.3,67.6z M9.1,59.4V46l13.2-13.2v26.6
	C22.3,59.4,9.1,59.4,9.1,59.4z M24.9,59.4V30.2l6.2-6l7,7v28.2C38.1,59.4,24.9,59.4,24.9,59.4z M40.7,59.4V31l13.2-13.2v41.6H40.7z
	 M8.7,42.4l-3.8-3.8l24.2-24.2h3.8l6.4,6.4l10.2-10.2L44.7,6l18.6-5.6l-5.2,18.4l-4.8-4.6L41.1,26.4h-3.8L30.9,20L8.7,42.4z"/>
</svg>
