<svg baseProfile="tiny" xmlns="http://www.w3.org/2000/svg" width="544" height="68" preserveAspectRatio="xMaxYMax meet" viewBox="0 0 544 68" ><g fill="#73B039"><path d="M41.9 41.6c4.2-4.5 7-12.1 7-19.7 0-1.1 0-2.2-.1-3.3h-2.3c0 6.8-10.6 9.9-10.6 0h-4c0 9.9-10.6 6.8-10.6 0h-2.2c-.1 1.1-.1 2.2-.1 3.3 0 7.6 2.8 15.3 7 19.8-2.7 13.1-24.5 7.6-24.5 26.3h64.9c0-18.7-21.8-13.2-24.5-26.4zM33.9.8c-10.2 0-13.7 6.3-14.6 15h29.3c-1-8.7-4.6-15-14.7-15z"/></g><g transform="translate(68)" id="svg-id-1"><path fill="#73B039" d="M.9 48.2v-41.8c9.7-7.6 23.9-7.1 33.2 0 9.3-7.1 23.5-7.6 33.2 0v41.8c-9.7-7.6-23.9-7.1-33.2 0-9.2-7-23.3-7.6-33.2 0zm35.4-6.9c7.5-3.7 16.4-4.4 24.4-1.8l1.8.7v-31.2l-1.3-.8c-7.8-4-17.5-3.1-24.2 2l-.6.4c-.1.1-.1 30.7-.1 30.7zm-4.6-.1v-30.7l-.4-.4c-6.8-5.1-16.6-6.1-24.3-2l-1.3.8v31.4l1.8-.7c7.9-2.7 16.7-2 24.2 1.6zm-21.6-12v-2.4h13.6v2.4h-13.6zm30.8 0v-2.4h16v2.4h-16zm-30.8-4.7v-2.4h16v2.4h-16zm30.8 0v-2.4h13.6v2.4h-13.6zm-30.8-4.8v-2.4h13.6v2.4h-13.6zm30.8 0v-2.4h16v2.4h-16zm-30.8-4.7v-2.4h16v2.4h-16zm30.8 0v-2.4h13.6v2.4h-13.6z"/></g><g transform="translate(136)" id="svg-id-2"><path fill="#57585B" d="M63.5 1h-59.2c-2 0-3.8 1.6-3.8 3.8v40.8c0 2 1.6 3.8 3.8 3.8h6.6l18.8 18.6v-18.5h34c2 0 3.8-1.6 3.8-3.8v-40.8c-.2-2.3-1.7-3.9-4-3.9zm-1.4 40.1c0 1.8-1.4 3.2-3.4 3.2h-33.8v12.6l-12.2-12.6h-3.8c-1.8 0-3.4-1.4-3.4-3.2v-31.8c0-1.8 1.4-3.2 3.4-3.2h49.6c1.8 0 3.4 1.4 3.4 3.2v31.8h.2z"/></g><g transform="translate(204)" id="svg-id-3"><path fill="#57585B" d="M6.3 67.6v-5.4h50v5.2h-50v.2zm2.8-8.2v-13.4l13.2-13.2v26.6h-13.2zm15.8 0v-29.2l6.2-6 7 7v28.2h-13.2zm15.8 0v-28.4l13.2-13.2v41.6h-13.2zm-32-17l-3.8-3.8 24.2-24.2h3.8l6.4 6.4 10.2-10.2-4.8-4.6 18.6-5.6-5.2 18.4-4.8-4.6-12.2 12.2h-3.8l-6.4-6.4-22.2 22.4z"/></g><g transform="translate(272)" id="svg-id-4"><path fill="#73B039" d="M8.1 41.6c0-11.4 7.4-21 17.8-24.4-1.4-1.8-2.2-4-2.2-6.4 0-5.6 4.6-10.2 10.2-10.2s10.2 4.6 10.2 10.2c0 2.4-.8 4.6-2.2 6.4 2.2.8 4.2 1.6 6 3l1-1.8c-.4-1.4 0-2.8 1-3.8 1.6-1.4 4-1.4 5.4 0 1.6 1.6 1.6 4 0 5.4-.6.6-1.2 1-2 1l-1.5 2.4c4.8 4.6 7.6 11.2 7.6 18.2 0 14.2-11.6 25.8-25.8 25.8-14-.2-25.5-11.6-25.5-25.8zm46.3 0c0-11.4-9.2-20.6-20.6-20.6s-20.6 9.2-20.6 20.6 9.2 20.6 20.6 20.6 20.6-9.2 20.6-20.6zm-23.1 15.4c0-1.4 1.2-2.6 2.6-2.6 1.4 0 2.6 1.2 2.6 2.6s-1.2 2.6-2.6 2.6c-1.5 0-2.6-1.2-2.6-2.6zm-10.2-2.6c-1-1-1-2.6 0-3.6s2.6-1 3.6 0 1 2.6 0 3.6c-.8 1-2.6 1-3.6 0zm21.7 0c-1-1-1-2.6 0-3.6s2.6-1 3.6 0 1 2.6 0 3.6c-.8 1-2.6 1-3.6 0zm-11.5-5.2v-3.2c-1.6-.8-2.6-2.6-2.6-4.4 0-1.8 1-3.6 2.6-4.4v-8.2h5.2v8.2c1.6.8 2.6 2.6 2.6 4.4 0 2-1 3.6-2.6 4.4v3.2h-5.2zm-15.4-7.6c0-1.4 1.2-2.6 2.6-2.6s2.6 1.2 2.6 2.6c0 1.4-1.2 2.6-2.6 2.6s-2.6-1.2-2.6-2.6zm30.7 0c0-1.4 1.2-2.6 2.6-2.6s2.6 1.2 2.6 2.6c0 1.4-1.2 2.6-2.6 2.6s-2.6-1.2-2.6-2.6zm-25.5-9.2c-1-1-1-2.6 0-3.6s2.6-1 3.6 0 1 2.6 0 3.6-2.6 1-3.6 0zm21.7 0c-1-1-1-2.6 0-3.6s2.6-1 3.6 0 1 2.6 0 3.6c-.8 1-2.6 1-3.6 0zm-11.5-6.2c0-1.4 1.2-2.6 2.6-2.6 1.4 0 2.6 1.2 2.6 2.6 0 1.4-1.2 2.6-2.6 2.6-1.5 0-2.6-1.2-2.6-2.6zm0-10.2v-.8c-1.6-.8-2.6-2.6-2.6-4.4 0-2.8 2.4-5.2 5.2-5.2s5.2 2.2 5.2 5.2c0 2-1 3.6-2.6 4.4v.8c1 0 1.8.2 2.6.4 1.6-1.4 2.6-3.4 2.6-5.6 0-4.2-3.4-7.8-7.8-7.8s-7.8 3.4-7.8 7.8c0 2.2 1 4.2 2.6 5.6.7-.2 1.7-.4 2.6-.4z"/></g><g transform="translate(340)" id="svg-id-5"><path fill="#57585B" d="M14.8 58.8c-1 .4-2.2.8-3.4.8-4.6 0-8.4-3.8-8.4-8.4s3.8-8.4 8.4-8.4 8.4 3.8 8.4 8.4c0 1.4-.4 2.6-1 3.8 3 4.6 6.6 6.8 9.4 6.6 1.6-.2 3.6-1.2 5.2-4.6 1.4-3 2.4-7.4 2.6-13.6l-.6-.4c-8.2-6.8-15-13.2-18.8-19-1.8-3-3.2-6-3.2-9 0-3.2 1.2-6 3.6-8.4v-.2c0-3.2 2.6-5.6 5.6-5.6 3.2 0 5.6 2.6 5.6 5.6 0 3.2-2.6 5.6-5.6 5.6-.8 0-1.8-.2-2.4-.6-1 1.2-1.2 2.2-1.2 3.4 0 1.6.8 3.6 2.4 6 1.2 1.8 2.6 3.6 4.4 5.6h26.8c1.8-2 3.2-3.8 4.4-5.6 1.6-2.4 2.4-4.6 2.4-6 0-1.2-.2-2.4-1.2-3.4-.8.4-1.6.6-2.4.6-3.2 0-5.6-2.6-5.6-5.6 0-3.2 2.6-5.6 5.6-5.6 3.2 0 5.6 2.6 5.6 5.6v.2c2.4 2.4 3.8 5.2 3.6 8.4 0 3-1.4 6-3.2 9-3.8 5.8-10.5 12.2-18.7 19l-1.2.2c-.2 7-1.4 12.4-3.2 16.2-2.2 4.8-5.6 7.4-9.8 7.8-5.4.4-10.5-3-14.1-8.4zm35-29.6h-21.3c1 1 1.8 1.8 3 2.8h15.4c.9-1 1.9-1.8 2.9-2.8z"/></g><g transform="translate(408)" id="svg-id-6"><path fill="#73B039" d="M12.2 66.1c-4.4-2.6-6-8.4-3.4-12.8l13-23c-1.8-3-3-6.6-3-10.6v-1.4h21.6c3.2.2 5-1.4 5.4-4.8v-12.8c7.8 2.8 13.4 10.2 13.4 19 0 11.2-9 20.2-20.2 20.2h-1l-13 22.8c-2.4 4.4-8.2 6-12.8 3.4zm10-9.4c0-2.2-1.8-4-4-4s-4 1.8-4 4 1.8 4 4 4c2.2.2 4-1.6 4-4zm21-25v-8h-2.6v5.4h-2.6v-5.4h-2.6v5.4h-2.6v-5.4h-2.6v8h13zm-10.6-31v14.8h-13.2c1.4-7 6.6-12.6 13.2-14.8z"/></g><g transform="translate(476)" id="svg-id-7"><path fill="#57585B" d="M26.2 56.2h-25.9c0-15.3 17.4-10.9 19.7-21.5-3.4-3.6-5.7-10-5.7-16.3 0-9.5 2-17.4 12-17.4s12 7.7 12 17.4c0 6.2-2.3 12.5-5.6 16.1 2.3 10.9 19.8 6.2 19.8 21.5h-26.3v.2zm9.1-21.5c3.5-3.6 5.6-10 5.6-16.1 0-8.7-1.6-15.9-9.5-17.3.9-.2 1.6-.2 2.6-.2 10 0 12 7.7 12 17.4 0 6.2-2.3 12.5-5.6 16.1 2.3 10.9 19.6 6.2 19.6 21.5h-4.9c-.1-15.1-17.4-10.7-19.8-21.4zm7.7 0c3.5-3.6 5.6-10 5.6-16.1-.1-8.7-1.6-15.9-9.6-17.3.8-.2 1.6-.2 2.5-.2 10 0 12 7.7 12 17.4 0 6.2-2.3 12.5-5.6 16.1 2.3 10.9 19.7 6.2 19.7 21.5h-4.9c0-15.1-17.4-10.7-19.7-21.4z"/></g></svg>