<svg width="220" height="190" xmlns="http://www.w3.org/2000/svg" xmlns:svg="http://www.w3.org/2000/svg">
 <title>arrow left</title>
 <metadata id="metadata7">image/svg+xml</metadata>
 <g>
  <title>Layer 1</title>
  <g id="layer1" transform="rotate(180 103.07260131835938,92.76406860351562) ">
   <g id="g3043">
    <path fill="#645e54" fill-rule="evenodd" d="m53.11438,128.68384c-0.05548,-0.59808 2.08591,-1.34235 5.98001,-2.38629c3.89407,-1.04395 9.54459,-2.4054 16.46155,-4.46259c6.91696,-2.05719 15.10294,-4.82288 23.96988,-8.66779c8.86694,-3.84485 18.41217,-8.77588 27.94934,-15.00781c0,0 0,0 0,0c5.67023,-3.70227 11.33072,-7.87177 16.85272,-12.48987c10.66382,-8.91827 19.77502,-18.66376 27.23456,-28.19049c7.4595,-9.52673 13.27377,-18.82349 17.72751,-26.8869c4.45377,-8.06343 7.57028,-14.89131 9.7955,-19.62025c1.11264,-2.36444 2.00287,-4.20648 2.70648,-5.43158c0.70361,-1.2251 1.22186,-1.83313 1.55377,-1.73901c0.33194,0.09412 0.46179,0.88647 0.37701,2.31305c-0.08481,1.42657 -0.38541,3.4873 -0.95105,6.1004c-1.13126,5.22614 -3.32495,12.68066 -7.13306,21.48671c-3.80814,8.80597 -9.2583,18.95819 -16.70142,29.30713c-7.44318,10.349 -16.89087,20.87799 -28.19647,30.33014c-5.85431,4.89459 -11.90936,9.25897 -18.00177,13.06598c0,0 0,0 0,0c-10.23761,6.39233 -20.52631,11.20398 -30.06039,14.68335c-9.53409,3.47937 -18.30936,5.63666 -25.68332,6.91455c-7.37393,1.27783 -13.34854,1.6911 -17.46027,1.68707c-4.11169,-0.00397 -6.36511,-0.40771 -6.42059,-1.0058z" id="path2985"/>
    <path fill="#645e54" fill-rule="evenodd" d="m75.24936,80.21204c0.42621,0.48517 -1.11566,2.65411 -4.32599,6.07587c-3.21033,3.42181 -8.08945,8.09558 -14.31241,13.66626c-6.22296,5.57068 -13.78986,12.03809 -22.34799,19.13013c-8.55814,7.09204 -18.10733,14.80939 -28.26852,22.95874c0,0 0,0 0,0c3.69444,0.09821 7.41452,0.33423 11.14688,0.7063c13.64758,1.36035 26.24216,4.40729 37.46518,8.04486c11.22302,3.63763 21.08197,7.84949 29.36237,11.81622c18.94464,9.74738 30.53284,16.54694 29.91843,17.87872c-0.61441,1.33185 -13.30838,-3.07074 -33.01956,-11.15662c-8.76221,-3.89563 -19.0441,-8.51917 -30.46368,-12.95465c-11.41959,-4.43549 -23.97345,-8.66479 -37.26663,-11.33661c-3.63548,-0.73071 -7.23859,-1.32538 -10.79971,-1.77557c0,0 0,0 0.00002,0c9.80116,-9.38635 19.11858,-18.24219 27.63152,-26.14606c8.51291,-7.90381 16.22153,-14.85498 22.77881,-20.51099c6.55725,-5.65601 11.96307,-10.01691 15.84259,-12.82312c3.87958,-2.80621 6.23251,-4.05865 6.65872,-3.57349z" id="path2991"/>
   </g>
  </g>
 </g>
</svg>