<?xml version="1.0" encoding="utf-8"?>
<!-- Generator: Adobe Illustrator 17.1.0, SVG Export Plug-In . SVG Version: 6.00 Build 0)  -->
<!DOCTYPE svg PUBLIC "-//W3C//DTD SVG 1.1//EN" "http://www.w3.org/Graphics/SVG/1.1/DTD/svg11.dtd">
<svg version="1.1" id="Layer_1" xmlns="http://www.w3.org/2000/svg" xmlns:xlink="http://www.w3.org/1999/xlink" x="0px" y="0px"
	 width="82px" height="144px" viewBox="0 0 82 144" enable-background="new 0 0 82 144" xml:space="preserve">
<g>
	<path fill="#3C6C11" d="M59.4,87.6L40.2,98.6c1.5,2.4,3.3,4.6,5.2,6.6c5-1.8,10.3-1.7,14.7,0.9c4.6,2.7,7.4,7.4,8.2,12.8
		c3.2,0.8,6.4,1.4,9.8,1.6V98.4C70.5,97.6,63.7,93.5,59.4,87.6z"/>
	<path fill="#3C6C11" d="M57.5,110.8c-6.7-3.9-16-0.5-20.6,7.6c-4.7,8.1-3,17.8,3.7,21.7c6.7,3.9,16,0.5,20.6-7.6
		C65.9,124.4,64.2,114.7,57.5,110.8z"/>
</g>
<g>
	<path fill="#63A825" d="M56.7,61.2L37.6,50.1c-1.2,2.4-2.3,5-3.1,7.6c5,3.4,8.1,8.6,8.1,14.3c0,5.8-3.2,10.9-8.1,14.3
		c0.8,2.6,1.9,5.2,3.1,7.6l19.2-11.1c-1.5-3.3-2.3-7-2.3-10.9C54.4,68.2,55.2,64.5,56.7,61.2z"/>
	<path fill="#63A825" d="M20.3,58C11,58,3.4,64.3,3.4,72.1S11,86.2,20.3,86.2s16.9-6.3,16.9-14.1S29.6,58,20.3,58z"/>
</g>
<g>
	<path fill="#81C13D" d="M68.3,25.2c-0.8,5.3-3.6,9.9-8.1,12.5c-4.4,2.5-9.6,2.7-14.5,0.9c-2,2.1-3.8,4.4-5.4,6.8l19.2,11.1
		c4.3-6,11-10,18.7-10.8V23.6C74.8,23.8,71.5,24.3,68.3,25.2z"/>
	<path fill="#81C13D" d="M57.5,33.1c6.7-3.9,8.4-13.6,3.7-21.7C56.6,3.3,47.3-0.1,40.6,3.8c-6.7,3.9-8.4,13.6-3.7,21.7
		C41.5,33.5,50.8,36.9,57.5,33.1z"/>
</g>
</svg>
