<?xml version="1.0" encoding="utf-8"?>
<!-- Generator: Adobe Illustrator 17.1.0, SVG Export Plug-In . SVG Version: 6.00 Build 0)  -->
<!DOCTYPE svg PUBLIC "-//W3C//DTD SVG 1.1//EN" "http://www.w3.org/Graphics/SVG/1.1/DTD/svg11.dtd">
<svg version="1.1" id="Layer_1" xmlns="http://www.w3.org/2000/svg" xmlns:xlink="http://www.w3.org/1999/xlink" x="0px" y="0px"
	 width="82px" height="144px" viewBox="0 0 82 144" enable-background="new 0 0 82 144" xml:space="preserve">
<g>
	<path fill="#58595B" d="M39.5,72.1c0-5.6,3-10.6,7.6-14c-2.2-7.3-6.1-13.9-11.2-19.3c-5.2,2.3-11,2.3-15.7-0.5
		c-4.8-2.8-7.6-7.8-8.3-13.5c-2.8-0.7-5.6-1.1-8.6-1.2v22.1c13.3,1.4,23.8,12.6,23.8,26.3c0,13.7-10.4,25-23.8,26.3v22.1
		c3.2-0.2,6.2-0.7,9.2-1.4c0.7-5.5,3.6-10.3,8.2-13c4.6-2.6,10-2.7,15.1-0.7c5.1-5.4,9-12,11.3-19.4C42.5,82.6,39.5,77.6,39.5,72.1z
		"/>
	<path fill="#58595B" d="M22.9,33.7c6.7,3.9,16,0.5,20.6-7.6s3-17.8-3.7-21.7C33,0.5,23.8,3.9,19.1,12S16.1,29.8,22.9,33.7z"/>
	<path fill="#58595B" d="M23.4,110.8c-6.7,3.9-8.4,13.6-3.7,21.7c4.7,8.1,13.9,11.5,20.6,7.6c6.7-3.9,8.4-13.6,3.7-21.7
		S30.2,106.9,23.4,110.8z"/>
	<path fill="#58595B" d="M61.8,58c-9.3,0-16.9,6.3-16.9,14.1s7.6,14.1,16.9,14.1s16.9-6.3,16.9-14.1S71.1,58,61.8,58z"/>
</g>
</svg>
