<?xml version="1.0" encoding="utf-8"?>
<!-- Generator: Adobe Illustrator 17.1.0, SVG Export Plug-In . SVG Version: 6.00 Build 0)  -->
<!DOCTYPE svg PUBLIC "-//W3C//DTD SVG 1.1//EN" "http://www.w3.org/Graphics/SVG/1.1/DTD/svg11.dtd">
<svg version="1.1" id="Layer_1" xmlns="http://www.w3.org/2000/svg" xmlns:xlink="http://www.w3.org/1999/xlink" x="0px" y="0px"
	 viewBox="0 0 64 64" enable-background="new 0 0 64 64" xml:space="preserve">
<g>
	<g>
		<path fill="#3C6C11" d="M23.056,38.713l-7.894,4.557c0.637,0.969,1.357,1.879,2.147,2.721c2.038-0.759,4.22-0.7,6.054,0.359
			c1.898,1.096,3.054,3.05,3.372,5.289c1.299,0.346,2.648,0.568,4.035,0.644V43.17C27.603,42.849,24.833,41.163,23.056,38.713z"/>
		<path fill="#3C6C11" d="M22.257,48.268c-2.769-1.599-6.582-0.196-8.5,3.126c-1.918,3.323-1.226,7.326,1.542,8.925
			c2.769,1.599,6.582,0.196,8.5-3.127C25.718,53.87,25.026,49.867,22.257,48.268z"/>
	</g>
	<g>
		<path fill="#63A825" d="M21.943,27.859l-7.889-4.555c-0.507,0.998-0.933,2.044-1.27,3.128c2.041,1.403,3.345,3.526,3.345,5.898
			c0,2.372-1.304,4.495-3.345,5.898c0.336,1.085,0.762,2.131,1.27,3.128l7.889-4.555c-0.617-1.365-0.961-2.879-0.961-4.471
			C20.982,30.738,21.326,29.225,21.943,27.859z"/>
		<path fill="#63A825" d="M6.958,26.533C3.121,26.533,0,29.134,0,32.331s3.121,5.798,6.958,5.798s6.958-2.601,6.958-5.798
			S10.794,26.533,6.958,26.533z"/>
	</g>
	<g>
		<path fill="#58595B" d="M47.871,32.331c0-2.291,1.218-4.348,3.14-5.75c-0.908-3.014-2.507-5.729-4.616-7.96
			c-2.157,0.934-4.518,0.947-6.482-0.186c-1.969-1.137-3.14-3.198-3.405-5.541c-1.141-0.273-2.319-0.448-3.526-0.515v9.114
			c5.49,0.556,9.789,5.205,9.789,10.839c0,5.634-4.299,10.283-9.789,10.839v9.114c1.303-0.071,2.571-0.272,3.795-0.583
			c0.306-2.264,1.466-4.244,3.381-5.35c1.884-1.088,4.135-1.119,6.22-0.294c2.117-2.235,3.722-4.955,4.632-7.976
			C49.089,36.679,47.871,34.622,47.871,32.331z"/>
		<path fill="#58595B" d="M41.02,16.517c2.769,1.599,6.582,0.196,8.5-3.127c1.918-3.322,1.226-7.326-1.542-8.925
			c-2.769-1.599-6.582-0.196-8.5,3.126C37.56,10.915,38.251,14.918,41.02,16.517z"/>
		<path fill="#58595B" d="M41.266,48.268c-2.769,1.599-3.461,5.602-1.542,8.925c1.918,3.322,5.731,4.725,8.5,3.127
			c2.769-1.599,3.461-5.602,1.543-8.925C47.848,48.072,44.035,46.67,41.266,48.268z"/>
		<path fill="#58595B" d="M57.042,26.533c-3.836,0-6.958,2.601-6.958,5.798s3.121,5.798,6.958,5.798S64,35.528,64,32.331
			S60.879,26.533,57.042,26.533z"/>
	</g>
	<g>
		<path fill="#73B13A" d="M26.717,13.027c-0.344,2.185-1.491,4.086-3.353,5.161c-1.808,1.044-3.954,1.116-5.967,0.391
			c-0.825,0.868-1.574,1.808-2.234,2.812l7.893,4.557c1.778-2.45,4.547-4.136,7.716-4.457v-9.114
			C29.377,12.454,28.021,12.678,26.717,13.027z"/>
		<path fill="#73B13A" d="M22.257,16.271c2.769-1.599,3.461-5.602,1.543-8.925c-1.918-3.323-5.732-4.725-8.5-3.127
			c-2.769,1.599-3.461,5.602-1.542,8.925C15.675,16.467,19.489,17.87,22.257,16.271z"/>
	</g>
</g>
</svg>
