<?xml version="1.0" encoding="utf-8"?>
<!-- Generator: Adobe Illustrator 17.1.0, SVG Export Plug-In . SVG Version: 6.00 Build 0)  -->
<!DOCTYPE svg PUBLIC "-//W3C//DTD SVG 1.1//EN" "http://www.w3.org/Graphics/SVG/1.1/DTD/svg11.dtd">
<svg version="1.1" id="Layer_1" xmlns="http://www.w3.org/2000/svg" xmlns:xlink="http://www.w3.org/1999/xlink" x="0px" y="0px"
	 width="68px" height="68px" viewBox="0 0 68 68" enable-background="new 0 0 68 68" xml:space="preserve">
<path fill="#73B039" d="M8.1,41.6c0-11.4,7.4-21,17.8-24.4c-1.4-1.8-2.2-4-2.2-6.4c0-5.6,4.6-10.2,10.2-10.2s10.2,4.6,10.2,10.2
	c0,2.4-0.8,4.6-2.2,6.4c2.2,0.8,4.2,1.6,6,3l1-1.8c-0.4-1.4,0-2.8,1-3.8c1.6-1.4,4-1.4,5.4,0c1.6,1.6,1.6,4,0,5.4
	c-0.6,0.6-1.2,1-2,1l-1.5,2.4c4.8,4.6,7.6,11.2,7.6,18.2c0,14.2-11.6,25.8-25.8,25.8C19.6,67.2,8.1,55.8,8.1,41.6z M54.4,41.6
	c0-11.4-9.2-20.6-20.6-20.6s-20.6,9.2-20.6,20.6s9.2,20.6,20.6,20.6S54.4,53,54.4,41.6z M31.3,57c0-1.4,1.2-2.6,2.6-2.6
	c1.4,0,2.6,1.2,2.6,2.6s-1.2,2.6-2.6,2.6C32.4,59.6,31.3,58.4,31.3,57z M21.1,54.4c-1-1-1-2.6,0-3.6s2.6-1,3.6,0s1,2.6,0,3.6
	C23.9,55.4,22.1,55.4,21.1,54.4z M42.8,54.4c-1-1-1-2.6,0-3.6s2.6-1,3.6,0s1,2.6,0,3.6C45.6,55.4,43.8,55.4,42.8,54.4z M31.3,49.2
	V46c-1.6-0.8-2.6-2.6-2.6-4.4c0-1.8,1-3.6,2.6-4.4V29h5.2v8.2c1.6,0.8,2.6,2.6,2.6,4.4c0,2-1,3.6-2.6,4.4v3.2H31.3z M15.9,41.6
	c0-1.4,1.2-2.6,2.6-2.6s2.6,1.2,2.6,2.6c0,1.4-1.2,2.6-2.6,2.6S15.9,43,15.9,41.6z M46.6,41.6c0-1.4,1.2-2.6,2.6-2.6
	s2.6,1.2,2.6,2.6c0,1.4-1.2,2.6-2.6,2.6S46.6,43,46.6,41.6z M21.1,32.4c-1-1-1-2.6,0-3.6s2.6-1,3.6,0s1,2.6,0,3.6
	S22.1,33.4,21.1,32.4z M42.8,32.4c-1-1-1-2.6,0-3.6s2.6-1,3.6,0s1,2.6,0,3.6C45.6,33.4,43.8,33.4,42.8,32.4z M31.3,26.2
	c0-1.4,1.2-2.6,2.6-2.6c1.4,0,2.6,1.2,2.6,2.6c0,1.4-1.2,2.6-2.6,2.6C32.4,28.8,31.3,27.6,31.3,26.2z M31.3,16v-0.8
	c-1.6-0.8-2.6-2.6-2.6-4.4c0-2.8,2.4-5.2,5.2-5.2s5.2,2.2,5.2,5.2c0,2-1,3.6-2.6,4.4V16c1,0,1.8,0.2,2.6,0.4
	c1.6-1.4,2.6-3.4,2.6-5.6c0-4.2-3.4-7.8-7.8-7.8s-7.8,3.4-7.8,7.8c0,2.2,1,4.2,2.6,5.6C29.4,16.2,30.4,16,31.3,16z"/>
</svg>
