<?xml version="1.0" encoding="utf-8"?>
<!-- Generator: Adobe Illustrator 17.1.0, SVG Export Plug-In . SVG Version: 6.00 Build 0)  -->
<!DOCTYPE svg PUBLIC "-//W3C//DTD SVG 1.1//EN" "http://www.w3.org/Graphics/SVG/1.1/DTD/svg11.dtd">
<svg version="1.1" id="Layer_1" xmlns="http://www.w3.org/2000/svg" xmlns:xlink="http://www.w3.org/1999/xlink" x="0px" y="0px"
	 width="68px" height="68px" viewBox="0 0 68 68" enable-background="new 0 0 68 68" xml:space="preserve">
<path fill="#73B039" d="M12.2,66.1c-4.4-2.6-6-8.4-3.4-12.8l13-23c-1.8-3-3-6.6-3-10.6c0-0.4,0-1,0-1.4h21.6c3.2,0.2,5-1.4,5.4-4.8
	V0.7c7.8,2.8,13.4,10.2,13.4,19c0,11.2-9,20.2-20.2,20.2c-0.4,0-0.6,0-1,0L25,62.7C22.6,67.1,16.8,68.7,12.2,66.1z M22.2,56.7
	c0-2.2-1.8-4-4-4s-4,1.8-4,4c0,2.2,1.8,4,4,4C20.4,60.9,22.2,59.1,22.2,56.7z M43.2,31.7v-8h-2.6v5.4H38v-5.4h-2.6v5.4h-2.6v-5.4
	h-2.6v8H43.2z M32.6,0.7v14.8H19.4C20.8,8.5,26,2.9,32.6,0.7z"/>
</svg>
