<?xml version="1.0" encoding="utf-8"?>
<!-- Generator: Adobe Illustrator 17.1.0, SVG Export Plug-In . SVG Version: 6.00 Build 0)  -->
<!DOCTYPE svg PUBLIC "-//W3C//DTD SVG 1.1//EN" "http://www.w3.org/Graphics/SVG/1.1/DTD/svg11.dtd">
<svg version="1.1" id="Layer_1" xmlns="http://www.w3.org/2000/svg" xmlns:xlink="http://www.w3.org/1999/xlink" x="0px" y="0px"
	 width="68px" height="68px" viewBox="-10 -10 68 68" enable-background="new -10 -10 68 68" xml:space="preserve">
<g>
	<path fill="#73B039" d="M31.4,31.2c4.2-4.5,7-12.1,7-19.7c0-1.1,0-2.2-0.1-3.3H36c0,6.8-10.6,9.9-10.6,0h-4c0,9.9-10.6,6.8-10.6,0
		H8.6c-0.1,1.1-0.1,2.2-0.1,3.3c0,7.6,2.8,15.3,7,19.8C12.7,44.4-9,38.9-9,57.6h64.9C55.9,38.9,34.1,44.4,31.4,31.2z"/>
	<path fill="#73B039" d="M23.4-9.6C13.2-9.6,9.7-3.3,8.8,5.4h29.3C37.1-3.3,33.5-9.6,23.4-9.6z"/>
</g>
</svg>
