<?xml version="1.0" encoding="utf-8"?>
<!-- Generator: Adobe Illustrator 17.1.0, SVG Export Plug-In . SVG Version: 6.00 Build 0)  -->
<!DOCTYPE svg PUBLIC "-//W3C//DTD SVG 1.1//EN" "http://www.w3.org/Graphics/SVG/1.1/DTD/svg11.dtd">
<svg version="1.1" id="Layer_1" xmlns="http://www.w3.org/2000/svg" xmlns:xlink="http://www.w3.org/1999/xlink" x="0px" y="0px"
	 width="68px" height="68px" viewBox="0 0 68 68" enable-background="new 0 0 68 68" xml:space="preserve">
<g>
	<path fill="#73B039" d="M41.9,41.6c4.2-4.5,7-12.1,7-19.7c0-1.1,0-2.2-0.1-3.3h-2.3c0,6.8-10.6,9.9-10.6,0h-4
		c0,9.9-10.6,6.8-10.6,0h-2.2C19,19.7,19,20.8,19,21.9c0,7.6,2.8,15.3,7,19.8C23.3,54.8,1.5,49.3,1.5,68h64.9
		C66.4,49.3,44.6,54.8,41.9,41.6z"/>
	<path fill="#73B039" d="M33.9,0.8c-10.2,0-13.7,6.3-14.6,15h29.3C47.6,7.1,44,0.8,33.9,0.8z"/>
</g>
</svg>
