<?xml version="1.0" encoding="utf-8"?>
<!-- Generator: Adobe Illustrator 17.1.0, SVG Export Plug-In . SVG Version: 6.00 Build 0)  -->
<!DOCTYPE svg PUBLIC "-//W3C//DTD SVG 1.1//EN" "http://www.w3.org/Graphics/SVG/1.1/DTD/svg11.dtd">
<svg version="1.1" id="Layer_1" xmlns="http://www.w3.org/2000/svg" xmlns:xlink="http://www.w3.org/1999/xlink" x="0px" y="0px"
	 width="48px" height="48px" viewBox="0 0 48 48" enable-background="new 0 0 48 48" xml:space="preserve">
<g>
	<path fill="#73B039" d="M27.4,27.6c2.1-2.2,3.5-6.1,3.5-9.9c0-0.6,0-1.1,0-1.6h-1.2c0,3.4-5.3,5-5.3,0h-2c0,5-5.3,3.4-5.3,0H16
		c0,0.5,0,1.1,0,1.6c0,3.8,1.4,7.6,3.5,9.9c-1.4,6.5-12.3,3.8-12.3,13.1h32.4C39.7,31.4,28.8,34.2,27.4,27.6z"/>
	<path fill="#73B039" d="M23.4,7.2c-5.1,0-6.9,3.2-7.3,7.5h14.6C30.3,10.4,28.5,7.2,23.4,7.2z"/>
</g>
</svg>
