<?xml version="1.0" encoding="utf-8"?>
<!-- Generator: Adobe Illustrator 17.1.0, SVG Export Plug-In . SVG Version: 6.00 Build 0)  -->
<!DOCTYPE svg PUBLIC "-//W3C//DTD SVG 1.1//EN" "http://www.w3.org/Graphics/SVG/1.1/DTD/svg11.dtd">
<svg version="1.1" id="Layer_1" xmlns="http://www.w3.org/2000/svg" xmlns:xlink="http://www.w3.org/1999/xlink" x="0px" y="0px"
	 width="68px" height="68px" viewBox="0 0 68 68" enable-background="new 0 0 68 68" xml:space="preserve">
<path fill="#73B039" d="M0.9,48.2V6.4c9.7-7.6,23.9-7.1,33.2,0c9.3-7.1,23.5-7.6,33.2,0v41.8c-9.7-7.6-23.9-7.1-33.2,0
	C24.9,41.2,10.8,40.6,0.9,48.2z M36.3,41.3c7.5-3.7,16.4-4.4,24.4-1.8l1.8,0.7V9l-1.3-0.8c-7.8-4-17.5-3.1-24.2,2l-0.6,0.4
	C36.3,10.7,36.3,41.3,36.3,41.3z M31.7,41.2V10.5l-0.4-0.4C24.5,5,14.7,4,7,8.1L5.7,8.9v31.4l1.8-0.7C15.4,36.9,24.2,37.6,31.7,41.2
	z M10.1,29.2v-2.4h13.6v2.4H10.1z M40.9,29.2v-2.4h16v2.4H40.9z M10.1,24.5v-2.4h16v2.4H10.1z M40.9,24.5v-2.4h13.6v2.4H40.9z
	 M10.1,19.7v-2.4h13.6v2.4H10.1z M40.9,19.7v-2.4h16v2.4H40.9z M10.1,15v-2.4h16V15C26.1,15,10.1,15,10.1,15z M40.9,15v-2.4h13.6V15
	C54.5,15,40.9,15,40.9,15z"/>
</svg>
