<?xml version="1.0" encoding="utf-8"?>
<!-- Generator: Adobe Illustrator 17.1.0, SVG Export Plug-In . SVG Version: 6.00 Build 0)  -->
<!DOCTYPE svg PUBLIC "-//W3C//DTD SVG 1.1//EN" "http://www.w3.org/Graphics/SVG/1.1/DTD/svg11.dtd">
<svg version="1.1" id="Layer_1" xmlns="http://www.w3.org/2000/svg" xmlns:xlink="http://www.w3.org/1999/xlink" x="0px" y="0px"
	 width="68px" height="68px" viewBox="-10 -10 68 68" enable-background="new -10 -10 68 68" xml:space="preserve">
<path fill="#73B039" d="M-9.1,38.3V-3.5c9.7-7.6,23.9-7.1,33.2,0c9.3-7.1,23.5-7.6,33.2,0v41.8c-9.7-7.6-23.9-7.1-33.2,0
	C14.9,31.3,0.8,30.7-9.1,38.3z M26.3,31.4c7.5-3.7,16.4-4.4,24.4-1.8l1.8,0.7V-0.9l-1.3-0.8c-7.8-4-17.5-3.1-24.2,2l-0.6,0.4
	C26.3,0.8,26.3,31.4,26.3,31.4z M21.7,31.3V0.6l-0.4-0.4C14.5-4.9,4.7-5.9-3-1.8l-1.3,0.8v31.4l1.8-0.7C5.4,27,14.2,27.7,21.7,31.3z
	 M0.1,19.3v-2.4h13.6v2.4H0.1z M30.9,19.3v-2.4h16v2.4H30.9z M0.1,14.6v-2.4h16v2.4H0.1z M30.9,14.6v-2.4h13.6v2.4H30.9z M0.1,9.8
	V7.4h13.6v2.4H0.1z M30.9,9.8V7.4h16v2.4H30.9z M0.1,5.1V2.7h16v2.4H0.1z M30.9,5.1V2.7h13.6v2.4H30.9z"/>
</svg>
