<?xml version="1.0" encoding="utf-8"?>
<!-- Generator: Adobe Illustrator 17.1.0, SVG Export Plug-In . SVG Version: 6.00 Build 0)  -->
<!DOCTYPE svg PUBLIC "-//W3C//DTD SVG 1.1//EN" "http://www.w3.org/Graphics/SVG/1.1/DTD/svg11.dtd">
<svg version="1.1" id="Layer_1" xmlns="http://www.w3.org/2000/svg" xmlns:xlink="http://www.w3.org/1999/xlink" x="0px" y="0px"
	 width="48px" height="48px" viewBox="0 0 48 48" enable-background="new 0 0 48 48" xml:space="preserve">
<path fill="#73B039" d="M0.5,40.7V11.1c6.9-5.4,16.9-5,23.5,0c6.6-5,16.6-5.4,23.5,0v29.6c-6.9-5.4-16.9-5-23.5,0
	C17.5,35.7,7.5,35.3,0.5,40.7z M25.6,35.8c5.3-2.6,11.6-3.1,17.3-1.3l1.3,0.5V12.9l-0.9-0.6c-5.5-2.8-12.4-2.2-17.1,1.4l-0.4,0.3
	C25.6,14.1,25.6,35.8,25.6,35.8z M22.3,35.7V14L22,13.7c-4.8-3.6-11.7-4.3-17.2-1.4l-0.9,0.6v22.2l1.3-0.5
	C10.8,32.7,17,33.2,22.3,35.7z M7,27.2v-1.7h9.6v1.7H7z M28.8,27.2v-1.7h11.3v1.7H28.8z M7,23.9v-1.7h11.3v1.7H7z M28.8,23.9v-1.7
	h9.6v1.7H28.8z M7,20.5v-1.7h9.6v1.7H7z M28.8,20.5v-1.7h11.3v1.7H28.8z M7,17.2v-1.7h11.3v1.7H7z M28.8,17.2v-1.7h9.6v1.7H28.8z"/>
</svg>
