<?xml version="1.0" encoding="utf-8"?>
<!-- Generator: Adobe Illustrator 17.1.0, SVG Export Plug-In . SVG Version: 6.00 Build 0)  -->
<!DOCTYPE svg PUBLIC "-//W3C//DTD SVG 1.1//EN" "http://www.w3.org/Graphics/SVG/1.1/DTD/svg11.dtd">
<svg version="1.1" id="Layer_1" xmlns="http://www.w3.org/2000/svg" xmlns:xlink="http://www.w3.org/1999/xlink" x="0px" y="0px" width="100px" height="100px" viewBox="0 0 54.75 40.375" enable-background="new 0 0 54.75 40.375" xml:space="preserve">
<path fill-rule="evenodd" clip-rule="evenodd" fill="#73B039" d="M0.625,39.25V5.458c7.893-6.134,19.28-5.751,26.779,0
	c7.498-5.751,18.885-6.134,26.779,0V39.25c-7.894-6.121-19.281-5.738-26.779,0C19.905,33.512,8.518,33.129,0.625,39.25z
	 M29.214,33.665c5.992-2.946,13.185-3.532,19.7-1.441l1.442,0.612v-25.3l-1.072-0.689c-6.223-3.239-14.141-2.499-19.561,1.645
	l-0.509,0.395V33.665z M25.389,33.563V8.735l-0.306-0.243C19.663,4.348,11.744,3.609,5.521,6.848L4.451,7.536v25.3l1.441-0.612
	C12.331,30.158,19.434,30.706,25.389,33.563z M8.007,23.884v-1.913h11.006v1.913H8.007z M32.887,23.884v-1.913h12.917v1.913H32.887z
	 M8.021,20.059v-1.913h12.917v1.913H8.021z M32.873,20.059v-1.913h11.006v1.913H32.873z M8.007,16.233v-1.913h11.006v1.913H8.007z
	 M32.887,16.233v-1.913h12.917v1.913H32.887z M8.021,12.408v-1.913h12.917v1.913H8.021z M32.873,12.408v-1.913h11.006v1.913H32.873z
	"/>
</svg>
