<?xml version="1.0" encoding="utf-8"?>
<!-- Generator: Adobe Illustrator 17.1.0, SVG Export Plug-In . SVG Version: 6.00 Build 0)  -->
<!DOCTYPE svg PUBLIC "-//W3C//DTD SVG 1.1//EN" "http://www.w3.org/Graphics/SVG/1.1/DTD/svg11.dtd">
<svg version="1.1" id="Layer_1" xmlns="http://www.w3.org/2000/svg" xmlns:xlink="http://www.w3.org/1999/xlink" x="0px" y="0px"
	 width="68px" height="68px" viewBox="-10 -10 68 68" enable-background="new -10 -10 68 68" xml:space="preserve">
<path fill="#57585B" d="M-3.8,57.5v-5.4h50v5.2h-50V57.5z M-1,49.3V35.9l13.2-13.2v26.6H-1z M14.8,49.3V20.1l6.2-6l7,7v28.2H14.8z
	 M30.6,49.3V20.9L43.8,7.7v41.6H30.6z M-1.4,32.3l-3.8-3.8L19,4.3h3.8l6.4,6.4L39.4,0.5l-4.8-4.6l18.6-5.6L48,8.7l-4.8-4.6L31,16.3
	h-3.8l-6.4-6.4L-1.4,32.3z"/>
</svg>
