<?xml version="1.0" encoding="utf-8"?>
<!-- Generator: Adobe Illustrator 17.1.0, SVG Export Plug-In . SVG Version: 6.00 Build 0)  -->
<!DOCTYPE svg PUBLIC "-//W3C//DTD SVG 1.1//EN" "http://www.w3.org/Graphics/SVG/1.1/DTD/svg11.dtd">
<svg version="1.1" id="Layer_1" xmlns="http://www.w3.org/2000/svg" xmlns:xlink="http://www.w3.org/1999/xlink" x="0px" y="0px" width="100px" height="100px" viewBox="0 0 54.75 40.375" enable-background="new 0 0 54.75 40.375" xml:space="preserve">
<path fill-rule="evenodd" clip-rule="evenodd" fill="#73B039" d="M12.696,24.487c0-6.498,4.238-12.017,10.1-13.946
	c-0.812-1.008-1.292-2.28-1.292-3.67C21.503,3.643,24.146,1,27.375,1c3.229,0,5.872,2.643,5.872,5.872
	c0,1.39-0.489,2.662-1.292,3.67c1.223,0.401,2.379,0.959,3.445,1.654l0.568-0.979c-0.235-0.754-0.049-1.615,0.548-2.211
	c0.861-0.852,2.261-0.852,3.112,0c0.862,0.861,0.862,2.261,0,3.122c-0.322,0.323-0.723,0.528-1.145,0.607l-0.773,1.331
	c2.682,2.662,4.346,6.352,4.346,10.422c0,8.103-6.576,14.679-14.679,14.679C19.272,39.167,12.696,32.59,12.696,24.487z
	 M39.119,24.487c0-6.479-5.255-11.744-11.744-11.744c-6.479,0-11.744,5.265-11.744,11.744c0,6.488,5.265,11.744,11.744,11.744
	C33.863,36.231,39.119,30.975,39.119,24.487z M25.888,33.305c0-0.822,0.665-1.488,1.487-1.488c0.812,0,1.487,0.665,1.487,1.488
	c0,0.812-0.675,1.478-1.487,1.478C26.553,34.782,25.888,34.117,25.888,33.305z M20.094,31.768c-0.577-0.577-0.577-1.517,0-2.094
	c0.578-0.578,1.527-0.578,2.104,0c0.577,0.577,0.577,1.517,0,2.094C21.621,32.355,20.672,32.355,20.094,31.768z M32.552,31.768
	c-0.577-0.577-0.577-1.517,0-2.094c0.577-0.578,1.517-0.578,2.094,0c0.588,0.577,0.588,1.517,0,2.094
	C34.069,32.355,33.129,32.355,32.552,31.768z M25.888,28.911v-1.888c-0.872-0.509-1.449-1.449-1.449-2.535
	c0-1.077,0.577-2.016,1.449-2.525v-4.649h2.936v4.629c0.89,0.499,1.487,1.458,1.487,2.545c0,1.096-0.597,2.055-1.487,2.554v1.869
	H25.888z M17.08,24.497c0-0.822,0.665-1.488,1.487-1.488c0.812,0,1.487,0.665,1.487,1.488c0,0.812-0.675,1.478-1.487,1.478
	C17.745,25.975,17.08,25.31,17.08,24.497z M34.696,24.497c0-0.822,0.665-1.488,1.487-1.488c0.812,0,1.487,0.665,1.487,1.488
	c0,0.812-0.675,1.478-1.487,1.478C35.361,25.975,34.696,25.31,34.696,24.497z M20.094,19.32c-0.577-0.578-0.577-1.527,0-2.104
	c0.578-0.577,1.527-0.577,2.104,0c0.577,0.578,0.577,1.527,0,2.104C21.621,19.897,20.672,19.897,20.094,19.32z M32.552,19.32
	c-0.577-0.578-0.577-1.527,0-2.104c0.577-0.577,1.517-0.577,2.094,0c0.588,0.578,0.588,1.527,0,2.104
	C34.069,19.897,33.129,19.897,32.552,19.32z M25.888,15.689c0-0.822,0.665-1.488,1.487-1.488c0.812,0,1.487,0.665,1.487,1.488
	c0,0.812-0.675,1.478-1.487,1.478C26.553,17.167,25.888,16.502,25.888,15.689z M25.888,9.886V9.407
	c-0.872-0.509-1.449-1.449-1.449-2.525c0-1.625,1.321-2.936,2.936-2.936c1.615,0,2.936,1.311,2.936,2.936
	c0,1.086-0.597,2.045-1.487,2.554v0.45c0.518,0.049,1.027,0.127,1.526,0.225c0.871-0.802,1.429-1.957,1.429-3.239
	c0-2.417-1.976-4.404-4.404-4.404c-2.428,0-4.404,1.986-4.404,4.404c0,1.282,0.548,2.437,1.429,3.239
	C24.88,10.013,25.379,9.935,25.888,9.886z"/>
</svg>
