<?xml version="1.0" encoding="utf-8"?>
<!-- Generator: Adobe Illustrator 17.1.0, SVG Export Plug-In . SVG Version: 6.00 Build 0)  -->
<!DOCTYPE svg PUBLIC "-//W3C//DTD SVG 1.1//EN" "http://www.w3.org/Graphics/SVG/1.1/DTD/svg11.dtd">
<svg version="1.1" id="Layer_1" xmlns="http://www.w3.org/2000/svg" xmlns:xlink="http://www.w3.org/1999/xlink" x="0px" y="0px"
	 width="68px" height="68px" viewBox="-10 -10 68 68" enable-background="new -10 -10 68 68" xml:space="preserve">
<path fill="#73B039" d="M-1.7,31.6c0-11.4,7.4-21,17.8-24.4c-1.4-1.8-2.2-4-2.2-6.4c0-5.6,4.6-10.2,10.2-10.2S34.3-4.8,34.3,0.8
	c0,2.4-0.8,4.6-2.2,6.4c2.2,0.8,4.2,1.6,6,3l1-1.8c-0.4-1.4,0-2.8,1-3.8c1.6-1.4,4-1.4,5.4,0c1.6,1.6,1.6,4,0,5.4
	c-0.6,0.6-1.2,1-2,1L42,13.4c4.8,4.6,7.6,11.2,7.6,18.2c0,14.2-11.6,25.8-25.8,25.8C9.8,57.2-1.7,45.8-1.7,31.6z M44.6,31.6
	C44.6,20.2,35.4,11,24,11S3.4,20.2,3.4,31.6S12.6,52.2,24,52.2S44.6,43,44.6,31.6z M21.5,47c0-1.4,1.2-2.6,2.6-2.6
	c1.4,0,2.6,1.2,2.6,2.6s-1.2,2.6-2.6,2.6C22.6,49.6,21.5,48.4,21.5,47z M11.3,44.4c-1-1-1-2.6,0-3.6s2.6-1,3.6,0s1,2.6,0,3.6
	C14.1,45.4,12.3,45.4,11.3,44.4z M33,44.4c-1-1-1-2.6,0-3.6s2.6-1,3.6,0s1,2.6,0,3.6C35.8,45.4,34,45.4,33,44.4z M21.5,39.2V36
	c-1.6-0.8-2.6-2.6-2.6-4.4c0-1.8,1-3.6,2.6-4.4V19h5.2v8.2c1.6,0.8,2.6,2.6,2.6,4.4c0,2-1,3.6-2.6,4.4v3.2H21.5z M6.1,31.6
	c0-1.4,1.2-2.6,2.6-2.6c1.4,0,2.6,1.2,2.6,2.6c0,1.4-1.2,2.6-2.6,2.6C7.3,34.2,6.1,33,6.1,31.6z M36.8,31.6c0-1.4,1.2-2.6,2.6-2.6
	s2.6,1.2,2.6,2.6c0,1.4-1.2,2.6-2.6,2.6C38,34.2,36.8,33,36.8,31.6z M11.3,22.4c-1-1-1-2.6,0-3.6s2.6-1,3.6,0s1,2.6,0,3.6
	S12.3,23.4,11.3,22.4z M33,22.4c-1-1-1-2.6,0-3.6s2.6-1,3.6,0s1,2.6,0,3.6C35.8,23.4,34,23.4,33,22.4z M21.5,16.2
	c0-1.4,1.2-2.6,2.6-2.6c1.4,0,2.6,1.2,2.6,2.6c0,1.4-1.2,2.6-2.6,2.6C22.6,18.8,21.5,17.6,21.5,16.2z M21.5,6V5.2
	c-1.6-0.8-2.6-2.6-2.6-4.4c0-2.8,2.4-5.2,5.2-5.2s5.2,2.2,5.2,5.2c0,2-1,3.6-2.6,4.4V6c1,0,1.8,0.2,2.6,0.4C30.9,5,31.9,3,31.9,0.8
	c0-4.2-3.4-7.8-7.8-7.8s-7.8,3.4-7.8,7.8c0,2.2,1,4.2,2.6,5.6C19.6,6.2,20.6,6,21.5,6z"/>
</svg>
