<?xml version="1.0" encoding="utf-8"?>
<!-- Generator: Adobe Illustrator 17.1.0, SVG Export Plug-In . SVG Version: 6.00 Build 0)  -->
<!DOCTYPE svg PUBLIC "-//W3C//DTD SVG 1.1//EN" "http://www.w3.org/Graphics/SVG/1.1/DTD/svg11.dtd">
<svg version="1.1" id="Layer_1" xmlns="http://www.w3.org/2000/svg" xmlns:xlink="http://www.w3.org/1999/xlink" x="0px" y="0px"
	 width="48px" height="48px" viewBox="0 0 48 48" enable-background="new 0 0 48 48" xml:space="preserve">
<path fill="#73B039" d="M11.1,27.8c0-5.7,3.7-10.5,8.9-12.2c-0.7-0.9-1.1-2-1.1-3.2c0-2.8,2.3-5.1,5.1-5.1s5.1,2.3,5.1,5.1
	c0,1.2-0.4,2.3-1.1,3.2c1.1,0.4,2.1,0.8,3,1.5l0.5-0.9c-0.2-0.7,0-1.4,0.5-1.9c0.8-0.7,2-0.7,2.7,0c0.8,0.8,0.8,2,0,2.7
	c-0.3,0.3-0.6,0.5-1,0.5l-0.7,1.2c2.4,2.3,3.8,5.6,3.8,9.1c0,7.1-5.8,12.9-12.9,12.9C16.9,40.6,11.1,34.9,11.1,27.8z M34.3,27.8
	c0-5.7-4.6-10.3-10.3-10.3c-5.7,0-10.3,4.6-10.3,10.3c0,5.7,4.6,10.3,10.3,10.3C29.7,38.1,34.3,33.5,34.3,27.8z M22.7,35.5
	c0-0.7,0.6-1.3,1.3-1.3c0.7,0,1.3,0.6,1.3,1.3c0,0.7-0.6,1.3-1.3,1.3C23.3,36.8,22.7,36.2,22.7,35.5z M17.6,34.2
	c-0.5-0.5-0.5-1.3,0-1.8c0.5-0.5,1.3-0.5,1.8,0c0.5,0.5,0.5,1.3,0,1.8C19,34.7,18.1,34.7,17.6,34.2z M28.5,34.2
	c-0.5-0.5-0.5-1.3,0-1.8c0.5-0.5,1.3-0.5,1.8,0c0.5,0.5,0.5,1.3,0,1.8C29.9,34.7,29,34.7,28.5,34.2z M22.7,31.6V30
	c-0.8-0.4-1.3-1.3-1.3-2.2c0-0.9,0.5-1.8,1.3-2.2v-4.1h2.6v4.1c0.8,0.4,1.3,1.3,1.3,2.2c0,1-0.5,1.8-1.3,2.2v1.6H22.7z M15,27.8
	c0-0.7,0.6-1.3,1.3-1.3c0.7,0,1.3,0.6,1.3,1.3c0,0.7-0.6,1.3-1.3,1.3C15.6,29.1,15,28.5,15,27.8z M30.4,27.8c0-0.7,0.6-1.3,1.3-1.3
	c0.7,0,1.3,0.6,1.3,1.3c0,0.7-0.6,1.3-1.3,1.3C31,29.1,30.4,28.5,30.4,27.8z M17.6,23.2c-0.5-0.5-0.5-1.3,0-1.8
	c0.5-0.5,1.3-0.5,1.8,0c0.5,0.5,0.5,1.3,0,1.8S18.1,23.7,17.6,23.2z M28.5,23.2c-0.5-0.5-0.5-1.3,0-1.8s1.3-0.5,1.8,0
	c0.5,0.5,0.5,1.3,0,1.8C29.9,23.7,29,23.7,28.5,23.2z M22.7,20.1c0-0.7,0.6-1.3,1.3-1.3c0.7,0,1.3,0.6,1.3,1.3
	c0,0.7-0.6,1.3-1.3,1.3C23.3,21.4,22.7,20.8,22.7,20.1z M22.7,15v-0.4c-0.8-0.4-1.3-1.3-1.3-2.2c0-1.4,1.2-2.6,2.6-2.6
	c1.4,0,2.6,1.1,2.6,2.6c0,1-0.5,1.8-1.3,2.2V15c0.5,0,0.9,0.1,1.3,0.2c0.8-0.7,1.3-1.7,1.3-2.8c0-2.1-1.7-3.9-3.9-3.9
	s-3.9,1.7-3.9,3.9c0,1.1,0.5,2.1,1.3,2.8C21.8,15.1,22.3,15,22.7,15z"/>
</svg>
