<?xml version="1.0" encoding="utf-8"?>
<!-- Generator: Adobe Illustrator 17.1.0, SVG Export Plug-In . SVG Version: 6.00 Build 0)  -->
<!DOCTYPE svg PUBLIC "-//W3C//DTD SVG 1.1//EN" "http://www.w3.org/Graphics/SVG/1.1/DTD/svg11.dtd">
<svg version="1.1" id="Layer_1" xmlns="http://www.w3.org/2000/svg" xmlns:xlink="http://www.w3.org/1999/xlink" x="0px" y="0px"
	 width="48px" height="48px" viewBox="0 0 48 48" enable-background="new 0 0 48 48" xml:space="preserve">
<path fill="#57585B" d="M13.9,36.3c-0.5,0.2-1.1,0.4-1.7,0.4c-2.3,0-4.2-1.9-4.2-4.2c0-2.3,1.9-4.2,4.2-4.2s4.2,1.9,4.2,4.2
	c0,0.7-0.2,1.3-0.5,1.9c1.5,2.3,3.3,3.4,4.7,3.3c0.8-0.1,1.8-0.6,2.6-2.3c0.7-1.5,1.2-3.7,1.3-6.8l-0.3-0.2
	c-4.1-3.4-7.5-6.6-9.4-9.5c-0.9-1.5-1.6-3-1.6-4.5c0-1.6,0.6-3,1.8-4.2l0,0c0,0,0-0.1,0-0.1c0-1.6,1.3-2.8,2.8-2.8
	c1.6,0,2.8,1.3,2.8,2.8c0,1.6-1.3,2.8-2.8,2.8c-0.4,0-0.9-0.1-1.2-0.3c-0.5,0.6-0.6,1.1-0.6,1.7c0,0.8,0.4,1.8,1.2,3
	c0.6,0.9,1.3,1.8,2.2,2.8h13.4c0.9-1,1.6-1.9,2.2-2.8c0.8-1.2,1.2-2.3,1.2-3c0-0.6-0.1-1.2-0.6-1.7c-0.4,0.2-0.8,0.3-1.2,0.3
	c-1.6,0-2.8-1.3-2.8-2.8c0-1.6,1.3-2.8,2.8-2.8c1.6,0,2.8,1.3,2.8,2.8c0,0,0,0.1,0,0.1l0,0c1.2,1.2,1.9,2.6,1.8,4.2
	c0,1.5-0.7,3-1.6,4.5c-1.9,2.9-5.3,6.1-9.4,9.5l-0.6,0.1c-0.1,3.5-0.7,6.2-1.6,8.1c-1.1,2.4-2.8,3.7-4.9,3.9
	C18.2,40.7,15.7,39,13.9,36.3z M31.4,21.5H20.7c0.5,0.5,0.9,0.9,1.5,1.4h7.7C30.4,22.4,30.9,22,31.4,21.5z"/>
</svg>
