<?xml version="1.0" encoding="utf-8"?>
<!-- Generator: Adobe Illustrator 17.1.0, SVG Export Plug-In . SVG Version: 6.00 Build 0)  -->
<!DOCTYPE svg PUBLIC "-//W3C//DTD SVG 1.1//EN" "http://www.w3.org/Graphics/SVG/1.1/DTD/svg11.dtd">
<svg version="1.1" id="Layer_1" xmlns="http://www.w3.org/2000/svg" xmlns:xlink="http://www.w3.org/1999/xlink" x="0px" y="0px"
	 width="68px" height="68px" viewBox="-10 -10 68 68" enable-background="new -10 -10 68 68" xml:space="preserve">
<path fill="#57585B" d="M3.8,48.6c-1,0.4-2.2,0.8-3.4,0.8c-4.6,0-8.4-3.8-8.4-8.4s3.8-8.4,8.4-8.4s8.4,3.8,8.4,8.4
	c0,1.4-0.4,2.6-1,3.8c3,4.6,6.6,6.8,9.4,6.6c1.6-0.2,3.6-1.2,5.2-4.6c1.4-3,2.4-7.4,2.6-13.6l-0.6-0.4c-8.2-6.8-15-13.2-18.8-19
	c-1.8-3-3.2-6-3.2-9c0-3.2,1.2-6,3.6-8.4l0,0v-0.2C6-7,8.6-9.4,11.6-9.4c3.2,0,5.6,2.6,5.6,5.6c0,3.2-2.6,5.6-5.6,5.6
	c-0.8,0-1.8-0.2-2.4-0.6C8.2,2.4,8,3.4,8,4.6c0,1.6,0.8,3.6,2.4,6c1.2,1.8,2.6,3.6,4.4,5.6h26.8c1.8-2,3.2-3.8,4.4-5.6
	c1.6-2.4,2.4-4.6,2.4-6c0-1.2-0.2-2.4-1.2-3.4c-0.8,0.4-1.6,0.6-2.4,0.6c-3.2,0-5.6-2.6-5.6-5.6c0-3.2,2.6-5.6,5.6-5.6
	c3.2,0,5.6,2.6,5.6,5.6v0.2l0,0c2.4,2.4,3.8,5.2,3.6,8.4c0,3-1.4,6-3.2,9C47,19.6,40.3,26,32.1,32.8L30.9,33
	c-0.2,7-1.4,12.4-3.2,16.2c-2.2,4.8-5.6,7.4-9.8,7.8C12.5,57.4,7.4,54,3.8,48.6z M38.8,19H17.5c1,1,1.8,1.8,3,2.8h15.4
	C36.8,20.8,37.8,20,38.8,19z"/>
</svg>
