<?xml version="1.0" encoding="utf-8"?>
<!-- Generator: Adobe Illustrator 17.1.0, SVG Export Plug-In . SVG Version: 6.00 Build 0)  -->
<!DOCTYPE svg PUBLIC "-//W3C//DTD SVG 1.1//EN" "http://www.w3.org/Graphics/SVG/1.1/DTD/svg11.dtd">
<svg version="1.1" id="Layer_1" xmlns="http://www.w3.org/2000/svg" xmlns:xlink="http://www.w3.org/1999/xlink" x="0px" y="0px"
	 width="68px" height="68px" viewBox="0 0 68 68" enable-background="new 0 0 68 68" xml:space="preserve">
<path fill="#57585B" d="M14.8,58.8c-1,0.4-2.2,0.8-3.4,0.8c-4.6,0-8.4-3.8-8.4-8.4s3.8-8.4,8.4-8.4s8.4,3.8,8.4,8.4
	c0,1.4-0.4,2.6-1,3.8c3,4.6,6.6,6.8,9.4,6.6c1.6-0.2,3.6-1.2,5.2-4.6c1.4-3,2.4-7.4,2.6-13.6L35.4,43c-8.2-6.8-15-13.2-18.8-19
	c-1.8-3-3.2-6-3.2-9c0-3.2,1.2-6,3.6-8.4l0,0V6.4c0-3.2,2.6-5.6,5.6-5.6c3.2,0,5.6,2.6,5.6,5.6c0,3.2-2.6,5.6-5.6,5.6
	c-0.8,0-1.8-0.2-2.4-0.6c-1,1.2-1.2,2.2-1.2,3.4c0,1.6,0.8,3.6,2.4,6c1.2,1.8,2.6,3.6,4.4,5.6h26.8c1.8-2,3.2-3.8,4.4-5.6
	c1.6-2.4,2.4-4.6,2.4-6c0-1.2-0.2-2.4-1.2-3.4c-0.8,0.4-1.6,0.6-2.4,0.6c-3.2,0-5.6-2.6-5.6-5.6c0-3.2,2.6-5.6,5.6-5.6
	c3.2,0,5.6,2.6,5.6,5.6v0.2l0,0C63.8,9,65.2,11.8,65,15c0,3-1.4,6-3.2,9C58,29.8,51.3,36.2,43.1,43l-1.2,0.2
	c-0.2,7-1.4,12.4-3.2,16.2c-2.2,4.8-5.6,7.4-9.8,7.8C23.5,67.6,18.4,64.2,14.8,58.8z M49.8,29.2H28.5c1,1,1.8,1.8,3,2.8h15.4
	C47.8,31,48.8,30.2,49.8,29.2z"/>
</svg>
