<?xml version="1.0" encoding="utf-8"?>
<!-- Generator: Adobe Illustrator 17.1.0, SVG Export Plug-In . SVG Version: 6.00 Build 0)  -->
<!DOCTYPE svg PUBLIC "-//W3C//DTD SVG 1.1//EN" "http://www.w3.org/Graphics/SVG/1.1/DTD/svg11.dtd">
<svg version="1.1" id="Layer_1" xmlns="http://www.w3.org/2000/svg" xmlns:xlink="http://www.w3.org/1999/xlink" x="0px" y="0px" width="100px" height="100px" viewBox="0 0 54.75 40.375" enable-background="new 0 0 54.75 40.375" xml:space="preserve">
<path fill-rule="evenodd" clip-rule="evenodd" fill="#57585B" d="M15.808,34.254c-0.587,0.267-1.239,0.406-1.933,0.406
	c-2.648,0-4.805-2.146-4.805-4.805c0-2.648,2.157-4.805,4.805-4.805s4.805,2.157,4.805,4.805c0,0.79-0.181,1.527-0.523,2.178
	c1.665,2.584,3.78,3.898,5.329,3.769c0.908-0.075,1.997-0.651,2.926-2.616c0.78-1.666,1.377-4.186,1.527-7.796l-0.384-0.213
	c-4.645-3.887-8.554-7.561-10.711-10.882c-1.078-1.666-1.815-3.396-1.858-5.126c-0.053-1.815,0.662-3.449,2.083-4.805l0.01,0.021
	c0-0.053,0-0.117,0-0.171C17.079,2.442,18.521,1,20.294,1c1.783,0,3.225,1.442,3.225,3.215c0,1.772-1.441,3.214-3.225,3.214
	c-0.502,0-0.983-0.117-1.41-0.32C18.35,7.76,18.168,8.401,18.19,9.084c0.021,0.897,0.427,2.051,1.345,3.471
	c0.652,1.004,1.495,2.061,2.531,3.183h15.282c1.036-1.122,1.88-2.179,2.531-3.183c0.918-1.42,1.324-2.573,1.345-3.471
	c0.021-0.683-0.17-1.324-0.694-1.975c-0.427,0.213-0.908,0.32-1.409,0.32c-1.773,0-3.225-1.442-3.225-3.214
	C35.895,2.442,37.347,1,39.12,1c1.772,0,3.214,1.442,3.214,3.215c0,0.053,0,0.106,0,0.171l0.011-0.021
	c1.42,1.356,2.136,2.99,2.082,4.805c-0.043,1.73-0.779,3.46-1.858,5.126c-2.157,3.321-6.066,6.994-10.711,10.882l-0.704,0.149
	c-0.15,3.973-0.801,7.027-1.847,9.227c-1.271,2.681-3.193,4.25-5.564,4.443C20.752,39.241,17.891,37.255,15.808,34.254z
	 M35.799,17.339H23.615c0.523,0.523,1.078,1.057,1.676,1.602h8.831C34.71,18.396,35.276,17.862,35.799,17.339z"/>
</svg>
