<?xml version="1.0" encoding="utf-8"?>
<!-- Generator: Adobe Illustrator 17.1.0, SVG Export Plug-In . SVG Version: 6.00 Build 0)  -->
<!DOCTYPE svg PUBLIC "-//W3C//DTD SVG 1.1//EN" "http://www.w3.org/Graphics/SVG/1.1/DTD/svg11.dtd">
<svg version="1.1" id="Layer_1" xmlns="http://www.w3.org/2000/svg" xmlns:xlink="http://www.w3.org/1999/xlink" x="0px" y="0px"
	 width="68px" height="68px" viewBox="-10 -10 68 68" enable-background="new -10 -10 68 68" xml:space="preserve">
<path fill="#73B039" d="M2.7,55.9c-4.4-2.6-6-8.4-3.4-12.8l13-23c-1.8-3-3-6.6-3-10.6c0-0.4,0-1,0-1.4h21.6c3.2,0.2,5-1.4,5.4-4.8
	V-9.5c7.8,2.8,13.4,10.2,13.4,19c0,11.2-9,20.2-20.2,20.2c-0.4,0-0.6,0-1,0l-13,22.8C13.1,56.9,7.3,58.5,2.7,55.9z M12.7,46.5
	c0-2.2-1.8-4-4-4s-4,1.8-4,4s1.8,4,4,4C10.9,50.7,12.7,48.9,12.7,46.5z M33.7,21.5v-8h-2.6v5.4h-2.6v-5.4h-2.6v5.4h-2.6v-5.4h-2.6v8
	H33.7z M23.1-9.5V5.3H9.9C11.3-1.7,16.5-7.3,23.1-9.5z"/>
</svg>
