<?xml version="1.0" encoding="utf-8"?>
<!-- Generator: Adobe Illustrator 17.1.0, SVG Export Plug-In . SVG Version: 6.00 Build 0)  -->
<!DOCTYPE svg PUBLIC "-//W3C//DTD SVG 1.1//EN" "http://www.w3.org/Graphics/SVG/1.1/DTD/svg11.dtd">
<svg version="1.1" id="Layer_1" xmlns="http://www.w3.org/2000/svg" xmlns:xlink="http://www.w3.org/1999/xlink" x="0px" y="0px" width="100px" height="100px" viewBox="0 0 54.75 40.375" enable-background="new 0 0 54.75 40.375" xml:space="preserve">
<path fill-rule="evenodd" clip-rule="evenodd" fill="#73B039" d="M15.313,38.338c-2.566-1.482-3.446-4.764-1.963-7.33l7.453-13.127
	c-1.063-1.748-1.686-3.804-1.686-6.002c0-0.266,0.01-0.532,0.03-0.808h12.28c1.799,0.092,2.872-0.746,3.067-2.689v-7.33
	c4.447,1.595,7.627,5.838,7.627,10.827c0,6.349-5.153,11.502-11.502,11.502c-0.195,0-0.399,0-0.593-0.01l-7.371,13.005
	C21.172,38.941,17.88,39.82,15.313,38.338z M20.998,33.001c0-1.268-1.033-2.3-2.3-2.3c-1.268,0-2.3,1.032-2.3,2.3
	c0,1.278,1.032,2.3,2.3,2.3C19.964,35.301,20.998,34.279,20.998,33.001z M32.96,18.738v-4.601h-1.534v3.067h-1.534v-3.067h-1.534
	v3.067h-1.534v-3.067h-1.534v4.601H32.96z M26.897,1v8.466h-7.524C20.22,5.498,23.113,2.298,26.897,1z"/>
</svg>
