<?xml version="1.0" encoding="utf-8"?>
<!-- Generator: Adobe Illustrator 17.1.0, SVG Export Plug-In . SVG Version: 6.00 Build 0)  -->
<!DOCTYPE svg PUBLIC "-//W3C//DTD SVG 1.1//EN" "http://www.w3.org/Graphics/SVG/1.1/DTD/svg11.dtd">
<svg version="1.1" id="Layer_1" xmlns="http://www.w3.org/2000/svg" xmlns:xlink="http://www.w3.org/1999/xlink" x="0px" y="0px"
	 width="48px" height="48px" viewBox="0 0 48 48" enable-background="new 0 0 48 48" xml:space="preserve">
<path fill="#73B039" d="M13.4,39.9c-2.2-1.3-3-4.2-1.7-6.4L18.2,22c-0.9-1.5-1.5-3.3-1.5-5.3c0-0.2,0-0.5,0-0.7h10.8
	c1.6,0.1,2.5-0.7,2.7-2.4V7.2c3.9,1.4,6.7,5.1,6.7,9.5c0,5.6-4.5,10.1-10.1,10.1c-0.2,0-0.3,0-0.5,0l-6.5,11.4
	C18.6,40.4,15.7,41.2,13.4,39.9z M18.4,35.2c0-1.1-0.9-2-2-2c-1.1,0-2,0.9-2,2c0,1.1,0.9,2,2,2C17.5,37.3,18.4,36.4,18.4,35.2z
	 M28.9,22.7v-4h-1.3v2.7h-1.3v-2.7h-1.3v2.7h-1.3v-2.7h-1.3v4H28.9z M23.6,7.2v7.4H17C17.7,11.1,20.3,8.3,23.6,7.2z"/>
</svg>
