<?xml version="1.0" encoding="utf-8"?>
<!-- Generator: Adobe Illustrator 17.1.0, SVG Export Plug-In . SVG Version: 6.00 Build 0)  -->
<!DOCTYPE svg PUBLIC "-//W3C//DTD SVG 1.1//EN" "http://www.w3.org/Graphics/SVG/1.1/DTD/svg11.dtd">
<svg version="1.1" id="Layer_1" xmlns="http://www.w3.org/2000/svg" xmlns:xlink="http://www.w3.org/1999/xlink" x="0px" y="0px" width="100px" height="100px" viewBox="0 0 54.75 40.375" enable-background="new 0 0 54.75 40.375" xml:space="preserve">
<path fill-rule="evenodd" clip-rule="evenodd" fill="#57585B" d="M21.886,39.25L21.886,39.25H4.048
	c0-10.618,12.113-7.523,13.689-14.952c-2.365-2.55-3.941-6.931-3.941-11.243C13.796,6.402,15.13,1,22.142,1
	c6.908,0,8.346,5.402,8.346,12.054c0,4.3-1.554,8.659-3.906,11.209c1.542,7.476,13.688,4.358,13.688,14.987H21.886z M28.32,24.263
	c2.352-2.55,3.906-6.909,3.906-11.209c0-6.062-1.183-11.069-6.618-11.927C26.153,1.046,26.732,1,27.358,1
	c6.908,0,8.346,5.402,8.346,12.054c0,4.3-1.554,8.659-3.906,11.209c1.542,7.476,13.688,4.358,13.688,14.987h-3.477
	C42.009,28.621,29.862,31.739,28.32,24.263z M33.536,24.263c2.352-2.55,3.906-6.909,3.906-11.209c0-6.062-1.183-11.069-6.618-11.927
	C31.368,1.046,31.948,1,32.574,1c6.908,0,8.346,5.402,8.346,12.054c0,4.3-1.554,8.659-3.906,11.209
	c1.542,7.476,13.688,4.358,13.688,14.987h-3.477C47.224,28.621,35.078,31.739,33.536,24.263z"/>
</svg>
