<?xml version="1.0" encoding="utf-8"?>
<!-- Generator: Adobe Illustrator 17.1.0, SVG Export Plug-In . SVG Version: 6.00 Build 0)  -->
<!DOCTYPE svg PUBLIC "-//W3C//DTD SVG 1.1//EN" "http://www.w3.org/Graphics/SVG/1.1/DTD/svg11.dtd">
<svg version="1.1" id="Layer_1" xmlns="http://www.w3.org/2000/svg" xmlns:xlink="http://www.w3.org/1999/xlink" x="0px" y="0px"
	 width="68px" height="68px" viewBox="0 0 68 68" enable-background="new 0 0 68 68" xml:space="preserve">
<path fill="#57585B" d="M26.2,56.2L26.2,56.2H0.3c0-15.3,17.4-10.9,19.7-21.5c-3.4-3.6-5.7-10-5.7-16.3c0-9.5,2-17.4,12-17.4
	s12,7.7,12,17.4c0,6.2-2.3,12.5-5.6,16.1C35,45.4,52.5,40.7,52.5,56H26.2V56.2z M35.3,34.7c3.5-3.6,5.6-10,5.6-16.1
	c0-8.7-1.6-15.9-9.5-17.3C32.3,1.1,33,1.1,34,1.1c10,0,12,7.7,12,17.4c0,6.2-2.3,12.5-5.6,16.1C42.7,45.5,60,40.8,60,56.1h-4.9
	C55,41,37.7,45.4,35.3,34.7z M43,34.7c3.5-3.6,5.6-10,5.6-16.1C48.5,9.9,47,2.7,39,1.3c0.8-0.2,1.6-0.2,2.5-0.2c10,0,12,7.7,12,17.4
	c0,6.2-2.3,12.5-5.6,16.1c2.3,10.9,19.7,6.2,19.7,21.5h-4.9C62.7,41,45.3,45.4,43,34.7z"/>
</svg>
