<?xml version="1.0" encoding="utf-8"?>
<!-- Generator: Adobe Illustrator 17.1.0, SVG Export Plug-In . SVG Version: 6.00 Build 0)  -->
<!DOCTYPE svg PUBLIC "-//W3C//DTD SVG 1.1//EN" "http://www.w3.org/Graphics/SVG/1.1/DTD/svg11.dtd">
<svg version="1.1" id="Layer_1" xmlns="http://www.w3.org/2000/svg" xmlns:xlink="http://www.w3.org/1999/xlink" x="0px" y="0px"
	 width="48px" height="48px" viewBox="0 0 48 48" enable-background="new 0 0 48 48" xml:space="preserve">
<path fill="#57585B" d="M19.2,40.7L19.2,40.7H3.5c0-9.3,10.6-6.6,12-13.1c-2.1-2.2-3.5-6.1-3.5-9.9c0-5.8,1.2-10.6,7.3-10.6
	c6.1,0,7.3,4.7,7.3,10.6c0,3.8-1.4,7.6-3.4,9.8c1.4,6.6,12,3.8,12,13.1H19.2z M24.8,27.6c2.1-2.2,3.4-6.1,3.4-9.8
	c0-5.3-1-9.7-5.8-10.5c0.5-0.1,1-0.1,1.5-0.1c6.1,0,7.3,4.7,7.3,10.6c0,3.8-1.4,7.6-3.4,9.8c1.4,6.6,12,3.8,12,13.1h-3
	C36.8,31.4,26.2,34.1,24.8,27.6z M29.4,27.6c2.1-2.2,3.4-6.1,3.4-9.8c0-5.3-1-9.7-5.8-10.5c0.5-0.1,1-0.1,1.5-0.1
	c6.1,0,7.3,4.7,7.3,10.6c0,3.8-1.4,7.6-3.4,9.8c1.4,6.6,12,3.8,12,13.1h-3C41.4,31.4,30.8,34.1,29.4,27.6z"/>
</svg>
